<svg xmlns="http://www.w3.org/2000/svg" width="560" height="648" viewBox="0 0 560 648"><defs><filter id="topics-glow" x="-60%" y="-60%" width="220%" height="220%"><feGaussianBlur stdDeviation="3" result="blur" /><feMerge><feMergeNode in="blur" /><feMergeNode in="SourceGraphic" /></feMerge></filter></defs><rect x="0.5" y="0.5" width="559" height="647" rx="20" fill="#0d1117" stroke="#30363d" stroke-width="1" /><text x="30" y="42" fill="#f0f6fc" font-family="Segoe UI, Helvetica, Arial, sans-serif" font-size="17" font-weight="700">Topics Breakdown</text><g filter="url(#topics-glow)"><path d="M 150.00,68.00 A 104,104 0 0 1 244.19,127.91 L 206.15,145.72 A 62,62 0 0 0 150.00,110.00 Z" fill="#58a6ff" stroke="#0d1117" stroke-width="2" /><path d="M 244.19,127.91 A 104,104 0 0 1 248.23,206.17 L 208.56,192.37 A 62,62 0 0 0 206.15,145.72 Z" fill="#3fb950" stroke="#0d1117" stroke-width="2" /><path d="M 248.23,206.17 A 104,104 0 0 1 214.54,253.55 L 188.48,220.62 A 62,62 0 0 0 208.56,192.37 Z" fill="#f778ba" stroke="#0d1117" stroke-width="2" /><path d="M 214.54,253.55 A 104,104 0 0 1 166.00,274.76 L 159.54,233.26 A 62,62 0 0 0 188.48,220.62 Z" fill="#d29922" stroke="#0d1117" stroke-width="2" /><path d="M 166.00,274.76 A 104,104 0 0 1 134.00,274.76 L 140.46,233.26 A 62,62 0 0 0 159.54,233.26 Z" fill="#a371f7" stroke="#0d1117" stroke-width="2" /><path d="M 134.00,274.76 A 104,104 0 0 1 103.50,265.03 L 122.28,227.46 A 62,62 0 0 0 140.46,233.26 Z" fill="#39c5cf" stroke="#0d1117" stroke-width="2" /><path d="M 103.50,265.03 A 104,104 0 0 1 81.34,250.12 L 109.07,218.57 A 62,62 0 0 0 122.28,227.46 Z" fill="#f85149" stroke="#0d1117" stroke-width="2" /><path d="M 81.34,250.12 A 104,104 0 0 1 63.71,230.06 L 98.56,206.61 A 62,62 0 0 0 109.07,218.57 Z" fill="#79c0ff" stroke="#0d1117" stroke-width="2" /><path d="M 63.71,230.06 A 104,104 0 0 1 150.00,68.00 L 150.00,110.00 A 62,62 0 0 0 98.56,206.61 Z" fill="#6e7681" stroke="#0d1117" stroke-width="2" /></g><circle cx="150" cy="172" r="62" fill="#0d1117" /><text x="150" y="166" text-anchor="middle" fill="#f0f6fc" font-family="Segoe UI, Helvetica, Arial, sans-serif" font-size="36" font-weight="700">122</text><text x="150" y="190" text-anchor="middle" fill="#8b949e" font-family="Segoe UI, Helvetica, Arial, sans-serif" font-size="12">topics tagged</text><rect x="320" y="96" width="210" height="46" rx="10" fill="#161b22" stroke="#30363d" stroke-width="1" /><circle cx="338" cy="119" r="6" fill="#58a6ff" /><text x="354" y="116" fill="#e6edf3" font-family="Segoe UI, Helvetica, Arial, sans-serif" font-size="14" font-weight="600">Array</text><text x="354" y="133" fill="#8b949e" font-family="Segoe UI, Helvetica, Arial, sans-serif" font-size="11.5">22 solved &#183; 18%</text><rect x="320" y="154" width="210" height="46" rx="10" fill="#161b22" stroke="#30363d" stroke-width="1" /><circle cx="338" cy="177" r="6" fill="#3fb950" /><text x="354" y="174" fill="#e6edf3" font-family="Segoe UI, Helvetica, Arial, sans-serif" font-size="14" font-weight="600">Math</text><text x="354" y="191" fill="#8b949e" font-family="Segoe UI, Helvetica, Arial, sans-serif" font-size="11.5">15 solved &#183; 12%</text><rect x="320" y="212" width="210" height="46" rx="10" fill="#161b22" stroke="#30363d" stroke-width="1" /><circle cx="338" cy="235" r="6" fill="#f778ba" /><text x="354" y="232" fill="#e6edf3" font-family="Segoe UI, Helvetica, Arial, sans-serif" font-size="14" font-weight="600">String</text><text x="354" y="249" fill="#8b949e" font-family="Segoe UI, Helvetica, Arial, sans-serif" font-size="11.5">11 solved &#183; 9%</text><rect x="320" y="270" width="210" height="46" rx="10" fill="#161b22" stroke="#30363d" stroke-width="1" /><circle cx="338" cy="293" r="6" fill="#d29922" /><text x="354" y="290" fill="#e6edf3" font-family="Segoe UI, Helvetica, Arial, sans-serif" font-size="14" font-weight="600">Hash Table</text><text x="354" y="307" fill="#8b949e" font-family="Segoe UI, Helvetica, Arial, sans-serif" font-size="11.5">10 solved &#183; 8%</text><rect x="320" y="328" width="210" height="46" rx="10" fill="#161b22" stroke="#30363d" stroke-width="1" /><circle cx="338" cy="351" r="6" fill="#a371f7" /><text x="354" y="348" fill="#e6edf3" font-family="Segoe UI, Helvetica, Arial, sans-serif" font-size="14" font-weight="600">Counting</text><text x="354" y="365" fill="#8b949e" font-family="Segoe UI, Helvetica, Arial, sans-serif" font-size="11.5">6 solved &#183; 5%</text><rect x="320" y="386" width="210" height="46" rx="10" fill="#161b22" stroke="#30363d" stroke-width="1" /><circle cx="338" cy="409" r="6" fill="#39c5cf" /><text x="354" y="406" fill="#e6edf3" font-family="Segoe UI, Helvetica, Arial, sans-serif" font-size="14" font-weight="600">Simulation</text><text x="354" y="423" fill="#8b949e" font-family="Segoe UI, Helvetica, Arial, sans-serif" font-size="11.5">6 solved &#183; 5%</text><rect x="320" y="444" width="210" height="46" rx="10" fill="#161b22" stroke="#30363d" stroke-width="1" /><circle cx="338" cy="467" r="6" fill="#f85149" /><text x="354" y="464" fill="#e6edf3" font-family="Segoe UI, Helvetica, Arial, sans-serif" font-size="14" font-weight="600">Database</text><text x="354" y="481" fill="#8b949e" font-family="Segoe UI, Helvetica, Arial, sans-serif" font-size="11.5">5 solved &#183; 4%</text><rect x="320" y="502" width="210" height="46" rx="10" fill="#161b22" stroke="#30363d" stroke-width="1" /><circle cx="338" cy="525" r="6" fill="#79c0ff" /><text x="354" y="522" fill="#e6edf3" font-family="Segoe UI, Helvetica, Arial, sans-serif" font-size="14" font-weight="600">Two Pointers</text><text x="354" y="539" fill="#8b949e" font-family="Segoe UI, Helvetica, Arial, sans-serif" font-size="11.5">5 solved &#183; 4%</text><rect x="320" y="560" width="210" height="46" rx="10" fill="#161b22" stroke="#30363d" stroke-width="1" /><circle cx="338" cy="583" r="6" fill="#6e7681" /><text x="354" y="580" fill="#e6edf3" font-family="Segoe UI, Helvetica, Arial, sans-serif" font-size="14" font-weight="600">Other</text><text x="354" y="597" fill="#8b949e" font-family="Segoe UI, Helvetica, Arial, sans-serif" font-size="11.5">42 solved &#183; 34%</text></svg>