<svg xmlns="http://www.w3.org/2000/svg" width="560" height="648" viewBox="0 0 560 648"><defs><filter id="topics-glow" x="-60%" y="-60%" width="220%" height="220%"><feGaussianBlur stdDeviation="3" result="blur" /><feMerge><feMergeNode in="blur" /><feMergeNode in="SourceGraphic" /></feMerge></filter></defs><rect x="0.5" y="0.5" width="559" height="647" rx="20" fill="#0d1117" stroke="#30363d" stroke-width="1" /><text x="30" y="42" fill="#f0f6fc" font-family="Segoe UI, Helvetica, Arial, sans-serif" font-size="17" font-weight="700">Topics Breakdown</text><g filter="url(#topics-glow)"><path d="M 150.00,68.00 A 104,104 0 0 1 245.41,130.62 L 206.88,147.33 A 62,62 0 0 0 150.00,110.00 Z" fill="#58a6ff" stroke="#0d1117" stroke-width="2" /><path d="M 245.41,130.62 A 104,104 0 0 1 246.47,210.85 L 207.51,195.16 A 62,62 0 0 0 206.88,147.33 Z" fill="#3fb950" stroke="#0d1117" stroke-width="2" /><path d="M 246.47,210.85 A 104,104 0 0 1 209.34,257.41 L 185.38,222.92 A 62,62 0 0 0 207.51,195.16 Z" fill="#f778ba" stroke="#0d1117" stroke-width="2" /><path d="M 209.34,257.41 A 104,104 0 0 1 158.23,275.67 L 154.91,233.81 A 62,62 0 0 0 185.38,222.92 Z" fill="#d29922" stroke="#0d1117" stroke-width="2" /><path d="M 158.23,275.67 A 104,104 0 0 1 125.52,273.08 L 135.41,232.26 A 62,62 0 0 0 154.91,233.81 Z" fill="#a371f7" stroke="#0d1117" stroke-width="2" /><path d="M 125.52,273.08 A 104,104 0 0 1 95.25,260.42 L 117.36,224.71 A 62,62 0 0 0 135.41,232.26 Z" fill="#39c5cf" stroke="#0d1117" stroke-width="2" /><path d="M 95.25,260.42 A 104,104 0 0 1 74.07,243.07 L 104.74,214.37 A 62,62 0 0 0 117.36,224.71 Z" fill="#f85149" stroke="#0d1117" stroke-width="2" /><path d="M 74.07,243.07 A 104,104 0 0 1 60.86,225.58 L 96.86,203.94 A 62,62 0 0 0 104.74,214.37 Z" fill="#79c0ff" stroke="#0d1117" stroke-width="2" /><path d="M 60.86,225.58 A 104,104 0 0 1 150.00,68.00 L 150.00,110.00 A 62,62 0 0 0 96.86,203.94 Z" fill="#6e7681" stroke="#0d1117" stroke-width="2" /></g><circle cx="150" cy="172" r="62" fill="#0d1117" /><text x="150" y="166" text-anchor="middle" fill="#f0f6fc" font-family="Segoe UI, Helvetica, Arial, sans-serif" font-size="36" font-weight="700">119</text><text x="150" y="190" text-anchor="middle" fill="#8b949e" font-family="Segoe UI, Helvetica, Arial, sans-serif" font-size="12">topics tagged</text><rect x="320" y="96" width="210" height="46" rx="10" fill="#161b22" stroke="#30363d" stroke-width="1" /><circle cx="338" cy="119" r="6" fill="#58a6ff" /><text x="354" y="116" fill="#e6edf3" font-family="Segoe UI, Helvetica, Arial, sans-serif" font-size="14" font-weight="600">Array</text><text x="354" y="133" fill="#8b949e" font-family="Segoe UI, Helvetica, Arial, sans-serif" font-size="11.5">22 solved &#183; 18%</text><rect x="320" y="154" width="210" height="46" rx="10" fill="#161b22" stroke="#30363d" stroke-width="1" /><circle cx="338" cy="177" r="6" fill="#3fb950" /><text x="354" y="174" fill="#e6edf3" font-family="Segoe UI, Helvetica, Arial, sans-serif" font-size="14" font-weight="600">Math</text><text x="354" y="191" fill="#8b949e" font-family="Segoe UI, Helvetica, Arial, sans-serif" font-size="11.5">15 solved &#183; 13%</text><rect x="320" y="212" width="210" height="46" rx="10" fill="#161b22" stroke="#30363d" stroke-width="1" /><circle cx="338" cy="235" r="6" fill="#f778ba" /><text x="354" y="232" fill="#e6edf3" font-family="Segoe UI, Helvetica, Arial, sans-serif" font-size="14" font-weight="600">String</text><text x="354" y="249" fill="#8b949e" font-family="Segoe UI, Helvetica, Arial, sans-serif" font-size="11.5">11 solved &#183; 9%</text><rect x="320" y="270" width="210" height="46" rx="10" fill="#161b22" stroke="#30363d" stroke-width="1" /><circle cx="338" cy="293" r="6" fill="#d29922" /><text x="354" y="290" fill="#e6edf3" font-family="Segoe UI, Helvetica, Arial, sans-serif" font-size="14" font-weight="600">Hash Table</text><text x="354" y="307" fill="#8b949e" font-family="Segoe UI, Helvetica, Arial, sans-serif" font-size="11.5">10 solved &#183; 8%</text><rect x="320" y="328" width="210" height="46" rx="10" fill="#161b22" stroke="#30363d" stroke-width="1" /><circle cx="338" cy="351" r="6" fill="#a371f7" /><text x="354" y="348" fill="#e6edf3" font-family="Segoe UI, Helvetica, Arial, sans-serif" font-size="14" font-weight="600">Counting</text><text x="354" y="365" fill="#8b949e" font-family="Segoe UI, Helvetica, Arial, sans-serif" font-size="11.5">6 solved &#183; 5%</text><rect x="320" y="386" width="210" height="46" rx="10" fill="#161b22" stroke="#30363d" stroke-width="1" /><circle cx="338" cy="409" r="6" fill="#39c5cf" /><text x="354" y="406" fill="#e6edf3" font-family="Segoe UI, Helvetica, Arial, sans-serif" font-size="14" font-weight="600">Simulation</text><text x="354" y="423" fill="#8b949e" font-family="Segoe UI, Helvetica, Arial, sans-serif" font-size="11.5">6 solved &#183; 5%</text><rect x="320" y="444" width="210" height="46" rx="10" fill="#161b22" stroke="#30363d" stroke-width="1" /><circle cx="338" cy="467" r="6" fill="#f85149" /><text x="354" y="464" fill="#e6edf3" font-family="Segoe UI, Helvetica, Arial, sans-serif" font-size="14" font-weight="600">Two Pointers</text><text x="354" y="481" fill="#8b949e" font-family="Segoe UI, Helvetica, Arial, sans-serif" font-size="11.5">5 solved &#183; 4%</text><rect x="320" y="502" width="210" height="46" rx="10" fill="#161b22" stroke="#30363d" stroke-width="1" /><circle cx="338" cy="525" r="6" fill="#79c0ff" /><text x="354" y="522" fill="#e6edf3" font-family="Segoe UI, Helvetica, Arial, sans-serif" font-size="14" font-weight="600">Sorting</text><text x="354" y="539" fill="#8b949e" font-family="Segoe UI, Helvetica, Arial, sans-serif" font-size="11.5">4 solved &#183; 3%</text><rect x="320" y="560" width="210" height="46" rx="10" fill="#161b22" stroke="#30363d" stroke-width="1" /><circle cx="338" cy="583" r="6" fill="#6e7681" /><text x="354" y="580" fill="#e6edf3" font-family="Segoe UI, Helvetica, Arial, sans-serif" font-size="14" font-weight="600">Other</text><text x="354" y="597" fill="#8b949e" font-family="Segoe UI, Helvetica, Arial, sans-serif" font-size="11.5">40 solved &#183; 34%</text></svg>